# xmcd CD database file
#
# Track frame offsets:
#	150
#	22060
#	42432
#	61012
#	80812
#	100187
#	119992
#	136982
#	160032
#	177150
#	205562
#	218622
#
# Disc length: 3175 seconds
#
# Revision: 0
# Processed by: cddbd v1.5.1PL0 Copyright (c) Steve Scherf et al.
# Submitted via: CDex 1.51
#
DISCID=a40c650c
DTITLE=Ikuko Kawai - Aurora
DYEAR=2004
DGENRE=Classical
TTITLE0=Aurora
TTITLE1=Jupiter From The Symphony "The Planets"
TTITLE2=The Breeze And Muse
TTITLE3=The Misty Forest
TTITLE4=The Sanctuary Based On Prelude And Allegro
TTITLE5=L'Instant De L'Amour
TTITLE6=Instinct Rhapsody
TTITLE7=From Russia With Love
TTITLE8=Por Una Cabeza
TTITLE9=Violin Muse Based On Two Chaconnes
TTITLE10=Londonderry Air
TTITLE11=Red Violin Based On En Aranjuez Con Tu Amor
EXTD=YEAR: 2004
EXTT0=
EXTT1=
EXTT2=
EXTT3=
EXTT4=
EXTT5=
EXTT6=
EXTT7=
EXTT8=
EXTT9=
EXTT10=
EXTT11=
PLAYORDER=
